# xmcd
#
# Track frame offsets: 
#        150
#        21277
#        39734
#        59324
#        78772
#        94682
#        122744
#        141460
#        156521
#        176772
#
# Disc length: 2641 seconds
#
# Revision: 0
# Processed by: cddbd v1.5.2PL0 Copyright (c) Steve Scherf et al.
# Submitted via: ExactAudioCopy v0.95b4
#
DISCID=870a4f0a
DTITLE=Big Daddy Weave - What Life Would Be Like
DYEAR=2008
DGENRE=Christian Rock
TTITLE0=You Found Me
TTITLE1=What Would Life Be Like
TTITLE2=We Want The World To Hear
TTITLE3=Revive Us Again
TTITLE4=Blue Skies
TTITLE5=Another Day In Paradise
TTITLE6=Right With You
TTITLE7=Falling Into You
TTITLE8=From Here
TTITLE9=Just Like Somebody Else
EXTD=
EXTT0=
EXTT1=
EXTT2=
EXTT3=
EXTT4=
EXTT5=
EXTT6=
EXTT7=
EXTT8=
EXTT9=
PLAYORDER=
